<?xml version="1.0" encoding="UTF-8" standalone="no"?>
<svg width="97px" height="53px" viewBox="0 0 97 53" version="1.1" xmlns="http://www.w3.org/2000/svg" xmlns:xlink="http://www.w3.org/1999/xlink" xmlns:sketch="http://www.bohemiancoding.com/sketch/ns">
    <!-- Generator: Sketch 3.3 (11970) - http://www.bohemiancoding.com/sketch -->
    <title>Shape</title>
    <desc>Created with Sketch.</desc>
    <defs></defs>
    <g id="Page-1" stroke="none" stroke-width="1" fill="none" fill-rule="evenodd" sketch:type="MSPage">
        <g id="PAGE-HOME-LOGGED" sketch:type="MSArtboardGroup" transform="translate(-505.000000, -600.000000)" fill="#FFFFFF">
            <g id="Group" sketch:type="MSLayerGroup" transform="translate(435.000000, 566.000000)">
                <g id="Shape-+-CAR-RENTAL-+-Rectangle-133" transform="translate(0.000000, 1.000000)" sketch:type="MSShapeGroup">
                    <path d="M84.4075579,79.114395 C84.4075579,82.7937351 87.4705745,85.7985294 91.2543009,85.7985294 C95.0380273,85.7985294 98.1010439,82.7937351 98.1010439,79.114395 C98.1010439,75.435055 95.0380273,72.4302606 91.2543009,72.4302606 C87.4705745,72.4302606 84.4075579,75.435055 84.4075579,79.114395 L84.4075579,79.114395 Z M138.460792,78.8077834 C138.460792,82.4871234 141.523809,85.4919178 145.307535,85.4919178 C149.091261,85.4919178 152.154278,82.4871234 152.154278,78.8077834 C152.154278,75.067121 149.091261,72.123649 145.307535,72.123649 C141.523809,72.123649 138.460792,75.067121 138.460792,78.8077834 L138.460792,78.8077834 Z M79.7734858,75.7013906 C79.7734858,75.7013906 80.6579059,67.7102695 90.6329362,66.777509 C95.8220055,66.2922816 102.245126,69.7934011 102.064948,75.9256337 L134.496888,75.9256337 C134.37677,75.1897657 135.830324,66.777509 145.40297,66.777509 C155.849289,66.777509 157.199166,77.0294363 157.199247,77.0294357 C162.709867,76.9889249 166.328237,67.4631516 166.328237,62.5573649 C166.328237,56.9770325 160.622618,51.3967001 154.916999,51.3967001 L148.610788,51.3967001 L129.992452,33 L120.563166,33 L115.99867,33 L102.245125,33 L85.4285635,51.3967001 L79.3625894,51.3967001 C74.7980941,51.3967001 70.2335987,55.8732305 70.2335987,60.2884386 C70.2335987,65.5008369 67.634787,75.9256337 79.7734858,75.7013906 Z M118.280918,51.3967001 L118.280918,38.4375497 L127.542498,38.4375497 L140.154919,51.3967001 L118.280918,51.3967001 Z M93.2648056,51.3967001 L104.736103,38.4375497 L112.986195,38.4375497 L112.986195,51.3967001 L93.2648056,51.3967001 Z" id="Shape"></path>
                </g>
            </g>
        </g>
    </g>
</svg>