<?xml version="1.0" encoding="UTF-8" standalone="no"?>
<svg width="78px" height="72px" viewBox="0 0 78 72" version="1.1" xmlns="http://www.w3.org/2000/svg" xmlns:xlink="http://www.w3.org/1999/xlink" xmlns:sketch="http://www.bohemiancoding.com/sketch/ns">
    <!-- Generator: Sketch 3.3 (11970) - http://www.bohemiancoding.com/sketch -->
    <title>Group</title>
    <desc>Created with Sketch.</desc>
    <defs></defs>
    <g id="Page-1" stroke="none" stroke-width="1" fill="none" fill-rule="evenodd" sketch:type="MSPage">
        <g id="PAGE-HOME-LOGGED" sketch:type="MSArtboardGroup" transform="translate(-1310.000000, -592.000000)" fill="#FFFFFF">
            <g id="Group" sketch:type="MSLayerGroup" transform="translate(435.000000, 566.000000)">
                <g id="CARPOOL-+-Group-+-Rectangle-133-Copy-3" transform="translate(796.000000, 0.000000)" sketch:type="MSShapeGroup">
                    <g id="Group" transform="translate(79.000000, 26.000000)">
                        <path d="M58.8459243,29.1994471 C57.4478108,29.1994471 55.4711676,28.8192413 54.1694758,28.6291384 C48.8180759,35.235214 39.3687572,33.5242879 39.3687572,33.5242879 C45.2986868,30.767796 46.3593246,25.8726464 45.2986868,25.254812 C40.6222382,22.5458457 38.4527518,19.5041994 38.4527518,14.8942042 C38.4527518,6.76730538 47.4199624,0.493909818 58.8459243,0.493909818 C70.3200971,0.493909818 77.3106645,6.76730538 77.3106645,14.8942042 C77.3106645,23.0686287 70.3200971,29.1994471 58.8459243,29.1994471 Z M49.9781252,18.3574764 L49.9653799,18.0683431 C49.9653799,16.7541012 51.1379443,15.9524136 52.4761972,15.9524136 C53.3046395,15.9524136 54.0438649,16.0969802 54.4772039,16.5043952 L54.7066187,16.7935284 C54.8340713,17.0169496 54.8977977,17.2929404 54.8977977,17.6346433 C54.8977977,17.7923523 54.8850524,17.9500613 54.8595619,18.1077704 L61.7420052,18.1077704 C61.7165147,17.9500613 61.7037694,17.7923523 61.7037694,17.6346433 C61.7037694,17.2929404 61.7674957,17.0169496 61.8949484,16.7935284 L62.1243632,16.5043952 C62.5577022,16.0969802 63.2969276,15.9524136 64.1253698,15.9524136 C65.4636227,15.9524136 66.5597156,17.030092 66.5597156,18.3443339 C66.5597156,18.4889006 66.5469703,18.6334672 66.5214798,18.7780338 C67.5665915,18.5283278 68.4969959,16.2941165 68.4969959,15.2427229 C68.4969959,14.0467627 67.2861957,12.8508025 66.0753955,12.8508025 L64.7371426,12.8508025 L60.7861103,8.90807667 L58.7851036,8.90807667 L57.8164634,8.90807667 L54.8977977,8.90807667 L51.3291233,12.8508025 L50.0418515,12.8508025 C49.0732113,12.8508025 48.1045712,13.8101992 48.1045712,14.7564534 C48.1045712,15.8735591 48.8947776,17.9106341 49.9781252,18.3574764 Z M51.1124538,18.7911762 C51.1124538,19.5797214 51.7624624,20.2236999 52.5654141,20.2236999 C53.3683658,20.2236999 54.0183743,19.5797214 54.0183743,18.7911762 C54.0183743,18.002631 53.3683658,17.3586525 52.5654141,17.3586525 C51.7624624,17.3586525 51.1124538,18.002631 51.1124538,18.7911762 Z M62.5831927,18.7254641 C62.5831927,19.5140093 63.2332013,20.1579878 64.036153,20.1579878 C64.8391047,20.1579878 65.4891133,19.5140093 65.4891133,18.7254641 C65.4891133,17.9237765 64.8391047,17.2929404 64.036153,17.2929404 C63.2332013,17.2929404 62.5831927,17.9237765 62.5831927,18.7254641 Z" id="Path"></path>
                        <path d="M62.1880895,12.8508025 L62.1243632,12.8508025 L58.3007835,12.8508025 L58.3007835,10.2223186 L59.5115838,10.2223186 L62.1880895,12.8508025 L62.1880895,12.8508025 Z" id="Path"></path>
                        <path d="M57.026257,12.8508025 L54.4772039,12.8508025 L53.4448374,12.8508025 L55.8791831,10.2223186 L57.026257,10.2223186 L57.026257,12.8508025 L57.026257,12.8508025 Z" id="Path"></path>
                        <path d="M33.9209356,55.4336467 C40.9115031,56.4316869 45.5879516,60.7565278 46.503957,62.3248766 C48.2395462,65.2239458 48.0949137,71.9725986 48.0949137,71.9725986 L0.0287363346,71.9725986 C0.0287363346,71.9725986 -0.212317715,64.7962143 2.10180116,61.8971451 C3.40349302,60.6614763 7.50141186,56.4316869 14.4919793,55.3861209 C21.4343359,54.3880807 19.3130603,46.7839649 19.5541143,46.8790164 C19.7951684,47.0215935 19.5059035,45.2631418 19.5059035,45.2631418 C19.5059035,45.2631418 14.4437685,40.4630436 14.4919793,36.1382028 C14.5884009,31.7658362 14.4919793,29.5321271 14.4919793,29.5321271 C14.4919793,29.5321271 15.3115631,19.2665708 22.4467629,19.2665708 L26.4482601,21.1675997 C32.8602978,21.1675997 33.9209356,29.5321271 33.9209356,29.5321271 L33.9209356,36.7560372 C33.9209356,36.7560372 33.1013519,42.8868556 29.0998547,45.1205646 C29.0998547,45.1205646 28.8105898,46.8790164 29.0516439,46.7364392 C29.2926979,46.6413877 26.978579,54.3880807 33.9209356,55.4336467 L33.9209356,55.4336467 Z" id="Shape"></path>
                        <path d="M53.0323373,71.8779696 C53.0323373,71.8779696 52.7893559,60.6644335 52.303393,60.143974 C51.8660265,59.5762 51.8174302,57.3051041 46.6176277,54.1823472 C47.1521868,52.6209687 46.666224,52.1951382 46.7634165,52.2424527 C46.9092054,52.3370817 46.7148202,51.2015338 46.7148202,51.2015338 C46.7148202,51.2015338 43.1186951,49.6874698 43.1672914,46.8959144 C43.2158877,44.0570445 43.1672914,43.820472 43.1672914,43.820472 C43.1672914,43.820472 43.3616766,38.6158772 48.0269199,38.6158772 L52.643567,38.6158772 C56.8714438,38.6158772 57.2602141,43.820472 57.2602141,43.820472 L57.2602141,47.2744304 C57.2602141,47.2744304 55.9967107,49.5455263 53.3725113,50.9649613 C53.3725113,50.9649613 53.1781262,52.1005092 53.323915,52.0058802 C53.4697039,51.9585657 53.4697039,57.0685316 58.0377547,57.7309346 C62.6058055,58.3933375 63.9179052,61.1375784 64.7926383,61.9419249 C65.6673714,62.7462714 67.3196451,71.9725986 67.3196451,71.9725986 L53.0323373,71.8779696 L53.0323373,71.8779696 Z" id="Shape"></path>
                    </g>
                </g>
            </g>
        </g>
    </g>
</svg>