<?xml version="1.0" encoding="UTF-8" standalone="no"?>
<svg width="98px" height="84px" viewBox="0 0 98 84" version="1.1" xmlns="http://www.w3.org/2000/svg" xmlns:xlink="http://www.w3.org/1999/xlink" xmlns:sketch="http://www.bohemiancoding.com/sketch/ns">
    <!-- Generator: Sketch 3.3 (11970) - http://www.bohemiancoding.com/sketch -->
    <title>Shape</title>
    <desc>Created with Sketch.</desc>
    <defs></defs>
    <g id="Page-1" stroke="none" stroke-width="1" fill="none" fill-rule="evenodd" sketch:type="MSPage">
        <g id="PAGE-HOME-LOGGED" sketch:type="MSArtboardGroup" transform="translate(-769.000000, -587.000000)" fill="#FFFFFF">
            <g id="Group" sketch:type="MSLayerGroup" transform="translate(435.000000, 566.000000)">
                <g id="Shape-+-HOUSE-RENTAL-+-Rectangle-133-Copy" transform="translate(265.000000, 0.000000)" sketch:type="MSShapeGroup">
                    <path d="M93.350036,68.5696271 L93.350036,86.4082372 L111.612563,86.4082372 L111.612563,68.5696271 L93.350036,68.5696271 L93.350036,68.5696271 Z M117.700072,21 L111.612563,26.9462034 L69,68.5696271 L75.087509,74.5158304 L81.175018,68.5696271 L81.175018,104.246847 L117.700072,104.246847 L142.050108,104.246847 L154.225126,104.246847 L154.225126,68.5696271 L160.312635,74.5158304 L166.400144,68.5696271 L123.787581,26.9462034 L117.700072,21 L117.700072,21 Z M87.0190267,62.8612718 L89.1496548,60.7801006 L117.882697,34.2005715 L147.650616,62.0882654 L148.624618,63.0396579 L148.624618,98.8358023 L142.050108,98.7763402 L142.050108,68.5696271 L117.700072,68.5696271 L117.700072,98.5384921 L86.9581516,98.300644 L87.0190267,62.8612718 L87.0190267,62.8612718 Z M135.962599,74.5158304 L135.962599,98.300644 L123.787581,98.300644 L123.787581,74.5158304 L135.962599,74.5158304 L135.962599,74.5158304 Z" id="Shape"></path>
                </g>
            </g>
        </g>
    </g>
</svg>