<?xml version="1.0" encoding="utf-8"?>
<!-- Generator: Adobe Illustrator 18.1.1, SVG Export Plug-In . SVG Version: 6.00 Build 0)  -->
<!DOCTYPE svg PUBLIC "-//W3C//DTD SVG 1.1//EN" "http://www.w3.org/Graphics/SVG/1.1/DTD/svg11.dtd">
<svg version="1.1" id="Calque_1" xmlns:sketch="http://www.bohemiancoding.com/sketch/ns"
	 xmlns="http://www.w3.org/2000/svg" xmlns:xlink="http://www.w3.org/1999/xlink" x="0px" y="0px" viewBox="0 0 1024 1024"
	 enable-background="new 0 0 1024 1024" xml:space="preserve">
<title>Group + logotype + iconIos Copy</title>
<desc>Created with Sketch.</desc>
<g id="Page-1" sketch:type="MSPage">
	<g id="PAGE-HOME-LOGGED" transform="translate(-46.000000, -35.000000)" sketch:type="MSArtboardGroup">
		<g id="Group-_x2B_-logotype-_x2B_-iconIos-Copy" transform="translate(46.000000, 35.000000)" sketch:type="MSLayerGroup">
			<g id="Group">
				<path id="Fill-1" sketch:type="MSShapeGroup" fill="#E69B54" d="M110.6,854.8c0,24.8-20,45.3-45.3,45.3
					c-24.8,0-45.3-20-45.3-45.3c0-24.8,20-45.3,45.3-45.3C90.6,809.4,110.6,829.4,110.6,854.8"/>
				<path id="Fill-2" sketch:type="MSShapeGroup" fill="#131D24" d="M129.6,756.3l-64.8,39.5L0,756.3V664h129.6V756.3"/>
				<path id="Fill-3" sketch:type="MSShapeGroup" fill="#FFFFFF" d="M0,664l129.6,92.2V664H0"/>
				<g id="Group-6" transform="translate(0.000000, 15.771429)">
					<g id="Clip-5">
					</g>
				</g>
				<path id="Fill-7" sketch:type="MSShapeGroup" fill="#DD3D71" d="M0,756.3l64.8,39.5l64.8-39.5L0,664V756.3"/>
			</g>
			<g id="logotype-_x2B_-iconIos-Copy" transform="translate(39.000000, 8.000000)" sketch:type="MSTextLayer">
				<g id="logotype" transform="translate(0.991525, 0.400000)">
					<text transform="matrix(1 0 0 1 172.3932 826.2933)" fill="#FFFFFF" font-family="'Raleway-Bold'" font-size="131.6777">Trust</text>
					<text transform="matrix(1 0 0 1 478.3015 826.2933)" fill="#FFFFFF" font-family="'Raleway-Bold'" font-size="131.6777"> </text>
					<text transform="matrix(1 0 0 1 508.8327 826.2933)" fill="#FFFFFF" font-family="'Raleway-Light'" font-size="131.6777">Advisor</text>
				</g>
			</g>
		</g>
	</g>
</g>
</svg>
