<?xml version="1.0" encoding="UTF-8" standalone="no"?>
<svg width="46px" height="45px" viewBox="0 0 46 45" version="1.1" xmlns="http://www.w3.org/2000/svg" xmlns:xlink="http://www.w3.org/1999/xlink" xmlns:sketch="http://www.bohemiancoding.com/sketch/ns">
    <!-- Generator: Sketch 3.3 (11970) - http://www.bohemiancoding.com/sketch -->
    <title>Shape</title>
    <desc>Created with Sketch.</desc>
    <defs></defs>
    <g id="Page-1" stroke="none" stroke-width="1" fill="none" fill-rule="evenodd" sketch:type="MSPage">
        <g id="PAGE-SIGN-IN-/-LOGIN" sketch:type="MSArtboardGroup" transform="translate(-1022.000000, -838.000000)" fill="#CC0F0F">
            <g id="Shape-+-Shape-+-Rectangle-7-Copy" sketch:type="MSLayerGroup" transform="translate(863.750000, 834.000000)">
                <path d="M173.307075,46.6513517 C167.671054,46.6513517 163.603535,43.3146025 163.603535,39.3078966 C163.603535,35.3793958 168.651716,32.1078175 174.284951,32.1651679 C175.597144,32.1808089 176.822971,32.3763216 177.934574,32.7126033 C180.990785,34.7042255 183.186131,35.8277715 183.804617,38.0957182 C183.921628,38.5571281 183.985705,39.0263584 183.985705,39.5112298 C183.985705,43.5205425 181.224807,46.6513517 173.307075,46.6513517 M174.786426,23.1481246 C171.005862,23.0412444 167.411958,19.1909486 166.760041,14.5455681 C166.108124,9.90018763 168.643358,6.34446429 172.423922,6.4487377 C176.2017,6.55561795 179.798389,10.2807856 180.450307,14.9287729 C181.102224,19.5741534 178.56699,23.2550049 174.786426,23.1481246 M182.623365,30.027563 C181.297242,29.1490595 178.764794,27.0140614 178.764794,25.7575668 C178.764794,24.282098 179.213335,23.5600046 181.578625,21.829066 C184.005207,20.0538111 185.724152,17.5590697 185.724152,14.6602689 C185.724152,11.2036053 184.080428,7.83818091 180.993571,6.72766908 L185.646144,6.72766908 L188.930805,4.5066454 L174.254305,4.5066454 C167.679412,4.5066454 161.486196,9.17027375 161.486196,14.5716365 C161.486196,20.0929137 165.971611,24.5479952 172.663515,24.5479952 C173.131559,24.5479952 173.5801,24.5401747 174.02307,24.5088926 C173.591244,25.2857296 173.276429,26.1642331 173.276429,27.0714117 C173.276429,28.6068377 174.159582,29.852905 175.276757,30.8669639 C174.432608,30.8669639 173.616318,30.8904255 172.733165,30.8904255 C164.584197,30.8904255 158.310188,35.7443528 158.310188,40.7833654 C158.310188,45.7415662 165.188753,48.8437002 173.334935,48.8437002 C182.623365,48.8437002 187.757911,43.9115678 187.757911,38.9507602 C187.757911,34.9753364 186.501438,32.5926889 182.623365,30.027563 M203.975053,23.5521841 L198.263811,23.5521841 L198.263811,18.2081717 L193.664171,18.2081717 L193.664171,23.5521841 L187.952929,23.5521841 L187.952929,27.8560692 L193.664171,27.8560692 L193.664171,33.2000815 L198.263811,33.2000815 L198.263811,27.8560692 L203.975053,27.8560692 L203.975053,23.5521841" id="Shape" sketch:type="MSShapeGroup"></path>
            </g>
        </g>
    </g>
</svg>