<?xml version="1.0" encoding="utf-8"?>
<!-- Generator: Adobe Illustrator 18.1.1, SVG Export Plug-In . SVG Version: 6.00 Build 0)  -->
<!DOCTYPE svg PUBLIC "-//W3C//DTD SVG 1.1//EN" "http://www.w3.org/Graphics/SVG/1.1/DTD/svg11.dtd">
<svg version="1.1" id="Calque_1" xmlns:sketch="http://www.bohemiancoding.com/sketch/ns"
	 xmlns="http://www.w3.org/2000/svg" xmlns:xlink="http://www.w3.org/1999/xlink" x="0px" y="0px" viewBox="-501 504 21 18"
	 enable-background="new -501 504 21 18" xml:space="preserve">
<title>Shape</title>
<desc>Created with Sketch.</desc>
<g id="Social-Icons" sketch:type="MSPage">
	<g id="twitter" transform="translate(-132.000000, -74.000000)" sketch:type="MSArtboardGroup">
		<g transform="translate(120.000000, 60.000000)" sketch:type="MSLayerGroup">
			<path id="Shape" sketch:type="MSShapeGroup" fill="#59ADEC" d="M-470.5,520.8c0.9-0.6,1.6-1.5,1.9-2.5c-0.8,0.5-1.8,0.9-2.7,1.1
				c-0.8-0.9-1.9-1.4-3.1-1.4c-2.4,0-4.3,2-4.3,4.5c0,0.4,0,0.7,0.1,1c-3.6-0.2-6.8-2-8.9-4.7c-0.4,0.7-0.6,1.5-0.6,2.3
				c0,1.6,0.8,3,1.9,3.8c-0.7,0-1.4-0.2-2-0.6v0.1c0,2.2,1.5,4,3.5,4.5c-0.4,0.1-0.7,0.2-1.1,0.2c-0.3,0-0.5,0-0.8-0.1
				c0.5,1.8,2.1,3.1,4,3.2c-1.5,1.2-3.3,1.9-5.4,1.9c-0.3,0-0.7,0-1-0.1c1.9,1.3,4.2,2,6.6,2c7.9,0,12.3-6.9,12.3-12.9
				c0-0.2,0-0.4,0-0.6c0.8-0.6,1.6-1.4,2.1-2.4C-468.8,520.5-469.6,520.7-470.5,520.8z"/>
		</g>
	</g>
</g>
</svg>
