<?xml version="1.0" encoding="UTF-8" standalone="no"?>
<svg width="18px" height="19px" viewBox="0 0 18 19" version="1.1" xmlns="http://www.w3.org/2000/svg" xmlns:xlink="http://www.w3.org/1999/xlink" xmlns:sketch="http://www.bohemiancoding.com/sketch/ns">
    <!-- Generator: Sketch 3.3 (11970) - http://www.bohemiancoding.com/sketch -->
    <title>settings</title>
    <desc>Created with Sketch.</desc>
    <defs></defs>
    <g id="Page-1" stroke="none" stroke-width="1" fill="none" fill-rule="evenodd" sketch:type="MSPage">
        <g id="PAGE-PROFIL" sketch:type="MSArtboardGroup" transform="translate(-1636.000000, -193.000000)" fill="#9B9B9B">
            <g id="settings" sketch:type="MSLayerGroup" transform="translate(1636.045457, 193.667329)">
                <path d="M15.3012659,9.71557441 C15.3012659,9.4506042 15.3892042,9.18563399 15.3892042,8.83234038 C15.3892042,8.47904676 15.3892042,8.21407655 15.3012659,7.94910634 L17.1479704,6.44760847 C17.323847,6.27096167 17.323847,6.09431486 17.2359087,5.91766805 L15.4771425,2.82634892 C15.3892042,2.73802552 15.2133276,2.64970211 14.9495126,2.73802552 L12.7510549,3.62125955 C12.3113634,3.26796594 11.7837335,3.00299573 11.2561036,2.73802552 L10.9043504,0.441617019 C10.9922887,0.176646808 10.7284738,2.84217094e-14 10.5525972,2.84217094e-14 L7.03506478,2.84217094e-14 C6.85918816,2.84217094e-14 6.59537323,0.176646808 6.59537323,0.353293615 L6.24361999,2.73802552 C5.71599013,2.91467232 5.27629858,3.26796594 4.74866872,3.62125955 L2.63814929,2.73802552 C2.37433436,2.64970211 2.19845774,2.73802552 2.02258112,2.91467232 L0.263814929,6.00599146 C0.175876619,6.09431486 0.263814929,6.35928507 0.439691548,6.53593188 L2.28639605,7.94910634 C2.28639605,8.21407655 2.19845774,8.47904676 2.19845774,8.83234038 C2.19845774,9.18563399 2.19845774,9.4506042 2.28639605,9.71557441 L0.439691548,11.2170723 C0.263814929,11.3937191 0.263814929,11.5703659 0.351753239,11.7470127 L2.11051943,14.8383318 C2.19845774,14.9266552 2.37433436,15.0149786 2.63814929,14.9266552 L4.83660703,14.0434212 C5.27629858,14.3967148 5.80392844,14.661685 6.3315583,14.9266552 L6.68331154,17.2230637 C6.68331154,17.3997105 6.85918816,17.5763573 7.12300309,17.5763573 L10.6405355,17.5763573 C10.8164121,17.5763573 11.080227,17.3997105 11.080227,17.2230637 L11.4319803,14.9266552 C11.9596101,14.661685 12.48724,14.3967148 12.9269315,14.0434212 L15.1253893,14.9266552 C15.3012659,15.0149786 15.5650808,14.9266552 15.6530191,14.7500084 L17.4117853,11.6586893 C17.4997236,11.4820425 17.4997236,11.2170723 17.323847,11.1287489 L15.3012659,9.71557441 L15.3012659,9.71557441 Z M8.79383097,11.9236595 C7.12300309,11.9236595 5.71599013,10.510485 5.71599013,8.83234038 C5.71599013,7.15419571 7.12300309,5.74102124 8.79383097,5.74102124 C10.4646589,5.74102124 11.8716718,7.15419571 11.8716718,8.83234038 C11.8716718,10.510485 10.4646589,11.9236595 8.79383097,11.9236595 L8.79383097,11.9236595 Z" id="Shape" sketch:type="MSShapeGroup"></path>
            </g>
        </g>
    </g>
</svg>